<svg id="visual" viewBox="0 0 1920 1080" width="1920" height="1080" xmlns="http://www.w3.org/2000/svg" xmlns:xlink="http://www.w3.org/1999/xlink" version="1.1"><rect x="0" y="0" width="1920" height="1080" fill="#001220"></rect><path d="M0 482L45.7 498.2C91.3 514.3 182.7 546.7 274.2 579.3C365.7 612 457.3 645 548.8 655.8C640.3 666.7 731.7 655.3 823 619.5C914.3 583.7 1005.7 523.3 1097 519.3C1188.3 515.3 1279.7 567.7 1371.2 603.8C1462.7 640 1554.3 660 1645.8 646.7C1737.3 633.3 1828.7 586.7 1874.3 563.3L1920 540L1920 1081L1874.3 1081C1828.7 1081 1737.3 1081 1645.8 1081C1554.3 1081 1462.7 1081 1371.2 1081C1279.7 1081 1188.3 1081 1097 1081C1005.7 1081 914.3 1081 823 1081C731.7 1081 640.3 1081 548.8 1081C457.3 1081 365.7 1081 274.2 1081C182.7 1081 91.3 1081 45.7 1081L0 1081Z" fill="#ffffff"></path><path d="M0 769L45.7 750.8C91.3 732.7 182.7 696.3 274.2 700.5C365.7 704.7 457.3 749.3 548.8 760.8C640.3 772.3 731.7 750.7 823 726.2C914.3 701.7 1005.7 674.3 1097 665.5C1188.3 656.7 1279.7 666.3 1371.2 679.2C1462.7 692 1554.3 708 1645.8 702.2C1737.3 696.3 1828.7 668.7 1874.3 654.8L1920 641L1920 1081L1874.3 1081C1828.7 1081 1737.3 1081 1645.8 1081C1554.3 1081 1462.7 1081 1371.2 1081C1279.7 1081 1188.3 1081 1097 1081C1005.7 1081 914.3 1081 823 1081C731.7 1081 640.3 1081 548.8 1081C457.3 1081 365.7 1081 274.2 1081C182.7 1081 91.3 1081 45.7 1081L0 1081Z" fill="#ffffff"></path><path d="M0 827L45.7 832C91.3 837 182.7 847 274.2 861.8C365.7 876.7 457.3 896.3 548.8 916.8C640.3 937.3 731.7 958.7 823 958C914.3 957.3 1005.7 934.7 1097 920C1188.3 905.3 1279.7 898.7 1371.2 902.8C1462.7 907 1554.3 922 1645.8 923.5C1737.3 925 1828.7 913 1874.3 907L1920 901L1920 1081L1874.3 1081C1828.7 1081 1737.3 1081 1645.8 1081C1554.3 1081 1462.7 1081 1371.2 1081C1279.7 1081 1188.3 1081 1097 1081C1005.7 1081 914.3 1081 823 1081C731.7 1081 640.3 1081 548.8 1081C457.3 1081 365.7 1081 274.2 1081C182.7 1081 91.3 1081 45.7 1081L0 1081Z" fill="#eeeeee"></path></svg>