<?xml version="1.0" encoding="UTF-8" standalone="no"?><svg xmlns="http://www.w3.org/2000/svg" xmlns:xlink="http://www.w3.org/1999/xlink" fill="#000000" height="249.3" preserveAspectRatio="xMidYMid meet" version="1" viewBox="0.0 351.7 900.0 249.3" width="900" zoomAndPan="magnify"><g id="change1_1"><path d="M0 369L37.5 364.7C75 360.3 150 351.7 225 382C300 412.3 375 481.7 450 509.5C525 537.3 600 523.7 675 499.7C750 475.7 825 441.3 862.5 424.2L900 407L900 601L862.5 601C825 601 750 601 675 601C600 601 525 601 450 601C375 601 300 601 225 601C150 601 75 601 37.5 601L0 601Z" fill="#aabbbf"/></g></svg>