<svg id="visual" viewBox="0 0 900 600" width="900" height="600" xmlns="http://www.w3.org/2000/svg" xmlns:xlink="http://www.w3.org/1999/xlink" version="1.1"><g transform="translate(442.50506469105153 267.9536048802079)"><path d="M154.1 -175.8C210.1 -136.7 272.9 -98 290.3 -44.5C307.6 8.9 279.4 76.9 240.7 134.3C202 191.6 152.8 238.2 90.1 271.3C27.4 304.5 -48.9 324.2 -120.3 308C-191.7 291.8 -258.2 239.6 -275.6 175.6C-293 111.5 -261.2 35.5 -227.2 -19.7C-193.1 -74.9 -156.8 -109.2 -118.6 -151.5C-80.4 -193.8 -40.2 -243.9 4.4 -249.2C49.1 -254.5 98.1 -214.9 154.1 -175.8" fill="#4DA1A4"></path></g></svg>