<?xml version="1.0" encoding="UTF-8" standalone="no"?><svg xmlns="http://www.w3.org/2000/svg" xmlns:xlink="http://www.w3.org/1999/xlink" fill="#000000" height="486.4" preserveAspectRatio="xMidYMid meet" version="1" viewBox="-0.4 -25.2 456.5 486.4" width="456.5" zoomAndPan="magnify"><g id="change1_1"><path d="M453.8,333.8c-2.4-40.1-32.3-64.6-69-77.1c-35.2-12.1-64.9-21.2-86.6-53.6c-17.8-26.6-26.2-58-38.7-86.9 c-18.6-43-47.2-84.5-92.2-104.8C86.1-25.2,0.8,30.7,0,116.3C-0.4,162,23.3,204.4,54.9,237c22.7,23.4,44.3,41.4,52.2,74 c5.6,23.1,6.4,47.7,16.9,69.5c21.3,44.2,83.6,62.7,129.7,71.2c51.9,9.5,95.1-13.4,138.9-36.5c0.1,0,0.1,0,0.1,0 C429.1,403.3,456.1,372.3,453.8,333.8z" fill="#4da1a4"/></g></svg>