<?xml version="1.0" encoding="UTF-8" standalone="no"?><svg xmlns="http://www.w3.org/2000/svg" xmlns:xlink="http://www.w3.org/1999/xlink" fill="#000000" height="309" preserveAspectRatio="xMidYMid meet" version="1" viewBox="0.0 592.0 900.0 309.0" width="900" zoomAndPan="magnify"><g id="change1_1"><path d="M0 652L30 657.8C60 663.7 120 675.3 180 667.7C240 660 300 633 360 616C420 599 480 592 540 597C600 602 660 619 720 642C780 665 840 694 870 708.5L900 723L900 901L870 901C840 901 780 901 720 901C660 901 600 901 540 901C480 901 420 901 360 901C300 901 240 901 180 901C120 901 60 901 30 901L0 901Z" fill="#4da1a4"/></g></svg>